<svg width="16" height="16" viewBox="0 0 16 16" fill="none" xmlns="http://www.w3.org/2000/svg">
<g clip-path="url(#clip0_2426_16)">
<path d="M12.25 0H3.75C1.67893 0 0 1.67893 0 3.75V12.25C0 14.3211 1.67893 16 3.75 16H12.25C14.3211 16 16 14.3211 16 12.25V3.75C16 1.67893 14.3211 0 12.25 0Z" fill="#5865F2"/>
<mask id="mask0_2426_16" style="mask-type:luminance" maskUnits="userSpaceOnUse" x="1" y="3" width="14" height="10">
<path d="M1.75 3.1875H14.25V12.8706H1.75V3.1875Z" fill="white"/>
</mask>
<g mask="url(#mask0_2426_16)">
<path d="M12.3318 4.04983C11.5214 3.67787 10.6661 3.4126 9.78746 3.26064C9.77948 3.25918 9.77124 3.26027 9.7639 3.26374C9.75657 3.26722 9.75051 3.27291 9.74659 3.28002C9.63671 3.47539 9.51496 3.73039 9.42977 3.93077C8.46896 3.78689 7.51315 3.78689 6.57209 3.93077C6.48684 3.72589 6.36071 3.47539 6.25034 3.28002C6.24627 3.27303 6.24018 3.26743 6.23287 3.26398C6.22556 3.26052 6.21738 3.25935 6.2094 3.26064C5.33066 3.41225 4.47538 3.67754 3.66509 4.04983C3.65819 4.05283 3.65235 4.05784 3.64834 4.0642C2.02784 6.4852 1.58396 8.8467 1.80171 11.179C1.80304 11.1905 1.80888 11.201 1.81796 11.2082C2.88709 11.9934 3.92277 12.4701 4.93921 12.786C4.94712 12.7884 4.95555 12.7882 4.96339 12.7857C4.97123 12.7831 4.9781 12.7782 4.98309 12.7716C5.22352 12.4433 5.43784 12.0971 5.62165 11.733C5.62418 11.728 5.62562 11.7226 5.62589 11.717C5.62615 11.7114 5.62523 11.7058 5.62318 11.7006C5.62113 11.6954 5.618 11.6907 5.614 11.6868C5.61 11.6829 5.60521 11.6799 5.59996 11.678C5.25996 11.549 4.93627 11.3918 4.6249 11.2132C4.61923 11.2099 4.61446 11.2052 4.61103 11.1996C4.6076 11.1939 4.6056 11.1876 4.60521 11.181C4.60482 11.1744 4.60605 11.1679 4.6088 11.1619C4.61155 11.1559 4.61572 11.1507 4.62096 11.1467C4.68665 11.0976 4.75121 11.047 4.81459 10.995C4.82014 10.9904 4.82686 10.9874 4.83399 10.9865C4.84112 10.9855 4.84838 10.9865 4.85496 10.9895C6.90071 11.9235 9.1154 11.9235 11.137 10.9895C11.1436 10.9863 11.1509 10.9852 11.1581 10.9861C11.1654 10.9869 11.1722 10.9898 11.1779 10.9945C11.2413 11.0468 11.3061 11.0976 11.372 11.1467C11.3773 11.1507 11.3815 11.1558 11.3843 11.1618C11.3871 11.1677 11.3884 11.1743 11.388 11.1809C11.3877 11.1874 11.3857 11.1938 11.3823 11.1995C11.3789 11.2051 11.3742 11.2098 11.3686 11.2132C11.057 11.3951 10.7307 11.5504 10.393 11.6775C10.3878 11.6795 10.383 11.6826 10.3791 11.6865C10.3751 11.6905 10.3721 11.6953 10.3701 11.7005C10.3681 11.7058 10.3672 11.7114 10.3675 11.717C10.3678 11.7226 10.3693 11.728 10.3718 11.733C10.5588 12.0942 10.7721 12.4412 11.0098 12.7711C11.0147 12.7779 11.0215 12.7829 11.0294 12.7856C11.0373 12.7882 11.0458 12.7884 11.0537 12.786C12.0751 12.4701 13.1108 11.9934 14.18 11.2082C14.1845 11.2048 14.1883 11.2005 14.1911 11.1956C14.1939 11.1906 14.1957 11.1851 14.1962 11.1795C14.4568 8.48314 13.7596 6.14095 12.348 4.0647C12.3446 4.05794 12.3388 4.05265 12.3318 4.04983ZM5.92715 9.75889C5.31121 9.75889 4.80371 9.19345 4.80371 8.49901C4.80371 7.80458 5.3014 7.23914 5.92715 7.23914C6.55777 7.23914 7.06034 7.80958 7.05046 8.49901C7.05046 9.19345 6.55284 9.75889 5.92715 9.75889ZM10.0806 9.75889C9.46471 9.75889 8.95727 9.19345 8.95727 8.49901C8.95727 7.80458 9.4549 7.23914 10.0806 7.23914C10.7113 7.23914 11.2138 7.80958 11.204 8.49901C11.204 9.19345 10.7113 9.75889 10.0806 9.75889Z" fill="white"/>
</g>
</g>
<defs>
<clipPath id="clip0_2426_16">
<rect width="16" height="16" fill="white"/>
</clipPath>
</defs>
</svg>
