<svg width="16" height="16" viewBox="0 0 16 16" fill="none" xmlns="http://www.w3.org/2000/svg">
<g clip-path="url(#clip0_2411_11)">
<path d="M13.6326 13.6329H11.2619V9.92026C11.2619 9.03495 11.2461 7.89526 10.0289 7.89526C8.79419 7.89526 8.60525 8.85988 8.60525 9.85582V13.6327H6.23463V5.99795H8.51044V7.04132H8.54232C8.77009 6.6519 9.09921 6.33154 9.49463 6.11436C9.89006 5.89718 10.337 5.7913 10.7878 5.80801C13.1906 5.80801 13.6336 7.38851 13.6336 9.44463L13.6326 13.6329ZM3.55963 4.95438C2.79982 4.95451 2.18375 4.33863 2.18363 3.57882C2.1835 2.81901 2.79932 2.20295 3.55913 2.20282C4.31894 2.20263 4.935 2.81851 4.93513 3.57832C4.93519 3.9432 4.79032 4.29316 4.53236 4.55122C4.27441 4.80928 3.92451 4.9543 3.55963 4.95438ZM4.745 13.633H2.37182V5.99795H4.74494L4.745 13.633ZM14.8145 0.00113398H1.18057C0.53619 -0.00611602 0.00775293 0.510071 -0.00012207 1.15445V14.8453C0.00750293 15.4899 0.535878 16.0066 1.1805 15.9999H14.8145C15.4605 16.0079 15.9909 15.4912 15.9999 14.8453V1.15338C15.9907 0.507759 15.4602 -0.00836602 14.8145 7.14757e-05" fill="#0A66C2"/>
</g>
<defs>
<clipPath id="clip0_2411_11">
<rect width="16" height="16" fill="white"/>
</clipPath>
</defs>
</svg>
